<svg width="36" height="35" viewBox="0 0 36 35" fill="none" xmlns="http://www.w3.org/2000/svg">
<path d="M29.2386 20.8268C28.0554 20.8268 26.9567 21.1603 26.027 21.6605C24.3366 20.2432 22.4773 19.076 20.3643 18.4091C23.576 16.3248 25.4354 12.6564 24.9283 8.73795C24.3366 4.23588 20.6179 0.567532 16.054 0.0673024C13.1804 -0.266184 10.3068 0.650902 8.10937 2.56845C5.91193 4.486 4.72869 7.15389 4.72869 10.0719C4.72869 13.4901 6.50354 16.6583 9.37712 18.4924C5.82741 19.6596 2.7848 22.0774 0.671869 25.1622C-0.51137 26.9963 -0.0887859 29.4975 1.60156 30.7481C5.48934 33.4993 10.0533 35 14.8707 35C18.3359 35 21.8011 34.1663 24.9283 32.5822C26.1115 33.5827 27.5483 34.1663 29.2386 34.1663C32.9574 34.1663 36 31.1649 36 27.4966C36 23.8282 32.9574 20.8268 29.2386 20.8268ZM6.41903 9.98852C6.41903 7.65412 7.43323 5.31971 9.20809 3.73565C10.8139 2.31834 12.7578 1.65136 14.7862 1.65136C15.1243 1.65136 15.4624 1.65136 15.8004 1.73473C19.6037 2.15159 22.7308 5.15297 23.1534 8.90469C23.6605 12.8232 21.3785 16.4915 17.5753 17.8255L14.8707 18.8259L12.0817 17.8255C8.70099 16.6583 6.41903 13.4901 6.41903 9.98852ZM2.70028 29.3307C1.68607 28.5804 1.43252 27.0797 2.10866 25.9959C4.3061 22.661 7.94034 20.2432 11.9126 19.4929L14.8707 18.9093L17.8288 19.4929C20.3643 19.9931 22.6463 21.0769 24.6747 22.661C23.3224 23.8282 22.4773 25.579 22.4773 27.4966C22.4773 28.9139 22.8999 30.2478 23.745 31.3316C20.956 32.6656 17.9133 33.3326 14.8707 33.3326C10.4758 33.3326 6.24999 31.9152 2.70028 29.3307ZM29.2386 32.4989C26.4496 32.4989 24.1676 30.2478 24.1676 27.4966C24.1676 24.7453 26.4496 22.4943 29.2386 22.4943C32.0277 22.4943 34.3097 24.7453 34.3097 27.4966C34.3097 30.2478 32.0277 32.4989 29.2386 32.4989ZM32.7883 26.3294L31.0135 27.9968L31.4361 30.4146L29.2386 29.2474L27.0412 30.4146L27.4638 27.9968L25.6889 26.3294L28.1399 25.9959L29.2386 23.8282L30.3374 25.9959L32.7883 26.3294Z" fill="black"/>
</svg>
