<svg width="24" height="24" viewBox="0 0 24 24" fill="none" xmlns="http://www.w3.org/2000/svg">
<path d="M19.3614 2.64722C21.6771 4.62474 23.3449 7.35874 23.6187 10.4308C23.6452 10.8725 23.6466 11.3137 23.6425 11.7561C23.6422 11.8228 23.6419 11.8894 23.6415 11.9581C23.6342 13.032 23.5558 14.0457 23.2281 15.074C23.205 15.1474 23.182 15.2209 23.1583 15.2966C22.2 18.2675 20.1109 20.7734 17.3445 22.2509C16.1139 22.8759 14.7907 23.271 13.4221 23.4413C13.4221 21.7539 13.4221 20.0665 13.4221 18.328C13.9152 18.1439 14.4083 17.9598 14.9164 17.7701C16.7123 16.7621 17.8273 15.3127 18.4112 13.3526C18.8354 11.538 18.4685 9.71437 17.5079 8.13607C16.4861 6.61675 15.0519 5.58379 13.2503 5.17881C11.4869 4.86416 9.74159 5.13815 8.24665 6.15573C6.57739 7.39513 5.46356 9.21146 5.11042 11.2622C4.95688 12.7547 5.31802 14.3269 6.2311 15.5388C6.10722 15.8248 5.99231 15.9766 5.7346 16.1519C5.67168 16.1953 5.60876 16.2388 5.54392 16.2835C5.47599 16.3292 5.40805 16.375 5.33806 16.4221C5.19431 16.5208 5.05058 16.6196 4.90686 16.7184C4.83274 16.769 4.75861 16.8196 4.68223 16.8717C4.31854 17.1211 3.95882 17.3762 3.59867 17.6307C3.17264 17.9314 2.74474 18.2277 2.30873 18.5139C1.87899 18.3774 1.72831 18.0312 1.52658 17.6597C1.48996 17.5933 1.45335 17.5268 1.41562 17.4584C-0.0810879 14.684 -0.389818 11.6528 0.483974 8.6376C0.989862 7.01229 1.84207 5.47975 2.96245 4.19644C3.02867 4.11926 3.09488 4.04208 3.1631 3.96257C7.27368 -0.718249 14.5372 -1.37374 19.3614 2.64722Z" fill="#3880ED"/>
<path d="M9.03139 17.0273C9.98677 17.0273 10.9421 17.0273 11.9265 17.0273C12.0352 18.3914 12.0305 19.7503 12.0257 21.118C12.0252 21.3531 12.0248 21.5882 12.0244 21.8233C12.0234 22.394 12.0219 22.9646 12.0199 23.5353C11.9274 23.5353 11.835 23.5353 11.7397 23.5353C11.7397 22.2467 11.7397 20.9581 11.7397 19.6305C10.8768 19.6305 10.0139 19.6305 9.12478 19.6305C9.12478 20.2134 9.12478 20.7964 9.12478 21.397C8.41595 21.397 7.70712 21.397 6.97681 21.397C6.97681 20.8447 6.97681 20.2925 6.97681 19.7235C6.32962 19.7235 5.68243 19.7235 5.01562 19.7235C5.01562 19.1099 5.01562 18.4963 5.01562 17.8641C5.69364 17.8641 6.37165 17.8641 7.0702 17.8641C7.0702 18.355 7.0702 18.8458 7.0702 19.3516C7.7174 19.3516 8.36459 19.3516 9.03139 19.3516C9.03139 18.5846 9.03139 17.8176 9.03139 17.0273Z" fill="#EF5128"/>
<path d="M5.3125 17.6094C5.99051 17.6094 6.66852 17.6094 7.36708 17.6094C7.36708 18.1003 7.36708 18.5911 7.36708 19.0969C8.04509 19.0969 8.7231 19.0969 9.42166 19.0969C9.42166 19.7719 9.42166 20.4468 9.42166 21.1423C8.71283 21.1423 8.004 21.1423 7.27369 21.1423C7.27369 20.59 7.27369 20.0378 7.27369 19.4688C6.6265 19.4688 5.9793 19.4688 5.3125 19.4688C5.3125 18.8552 5.3125 18.2416 5.3125 17.6094Z" fill="#7EBB41"/>
<path d="M5.3125 17.6094C5.99051 17.6094 6.66852 17.6094 7.36708 17.6094C7.369 17.8471 7.37093 18.0849 7.37292 18.3299C7.37377 18.4042 7.37462 18.4784 7.37549 18.555C7.37678 18.8831 7.35423 19.1481 7.27369 19.4688C6.6265 19.4688 5.9793 19.4688 5.3125 19.4688C5.3125 18.8552 5.3125 18.2416 5.3125 17.6094Z" fill="#FDB714"/>
<path d="M12.1133 18.5156C12.2982 18.5156 12.4831 18.5156 12.6736 18.5156C12.6736 20.1724 12.6736 21.8291 12.6736 23.536C12.4887 23.536 12.3038 23.536 12.1133 23.536C12.1133 21.8793 12.1133 20.2226 12.1133 18.5156Z" fill="#3880ED"/>
<path d="M12.8624 18.4219C13.0165 18.4219 13.1706 18.4219 13.3294 18.4219C13.3294 20.0786 13.3294 21.7353 13.3294 23.4423C13.1445 23.4423 12.9596 23.4423 12.769 23.4423C12.7667 22.7422 12.765 22.0422 12.7639 21.3422C12.7634 21.1038 12.7628 20.8654 12.762 20.6271C12.7609 20.2853 12.7603 19.9436 12.7599 19.6018C12.7594 19.4945 12.759 19.3872 12.7585 19.2766C12.7585 19.178 12.7584 19.0794 12.7584 18.9777C12.7582 18.8904 12.758 18.8031 12.7578 18.7131C12.769 18.5148 12.769 18.5148 12.8624 18.4219Z" fill="#3880ED"/>
<path d="M12.1311 18.2617C12.1927 18.2617 12.2543 18.2617 12.3178 18.2617C12.3178 19.9185 12.3178 21.5752 12.3178 23.2821C12.2254 23.2821 12.1329 23.2821 12.0377 23.2821C12.0353 22.7465 12.0337 22.2108 12.0325 21.6751C12.0321 21.4934 12.0314 21.3116 12.0306 21.1298C12.0222 19.193 12.0222 19.193 12.1311 18.2617Z" fill="#05ABEA"/>
</svg>
