<svg width="24" height="25" viewBox="0 0 24 25" fill="none" xmlns="http://www.w3.org/2000/svg">
<path d="M23.3197 13.6855C23.3197 13.4765 23.1775 13.2943 22.9752 13.2443L21.4748 12.8728C21.3875 12.6264 21.2873 12.3867 21.1758 12.1559L21.9747 10.8371C22.0831 10.6582 22.0556 10.428 21.9084 10.2798L19.8879 8.2472C19.7409 8.09917 19.5116 8.07076 19.3331 8.17907L18.0096 8.98184C17.7759 8.86776 17.5384 8.76833 17.2994 8.68399L16.9343 7.18097C16.8848 6.97723 16.703 6.83407 16.4943 6.83407H13.6336C13.4253 6.83407 13.2438 6.97678 13.1941 7.17986L13.1895 7.19826C12.6136 6.53999 12.1158 6.02996 11.789 5.71658L13.5414 2.48526C13.723 2.08354 13.69 1.62344 13.453 1.25435C13.2232 0.896349 12.8352 0.682617 12.4151 0.682617H5.99874C5.57864 0.682617 5.19059 0.896349 4.96086 1.25435C4.72383 1.62344 4.69089 2.08354 4.88281 2.50679L6.57294 5.77786C5.31013 7.05895 0.68042 12.1357 0.68042 17.5814C0.68042 19.1303 1.42865 20.4937 2.84463 21.5247C4.52329 22.7472 7.05387 23.4081 9.59264 23.4081C10.8102 23.4081 12.0244 23.2461 13.1525 22.9308L13.1841 23.0612C13.2334 23.265 13.4152 23.4083 13.6241 23.4083H16.4943C16.703 23.4083 16.8848 23.265 16.9343 23.0614L17.2994 21.5584C17.5384 21.4743 17.7759 21.3749 18.0096 21.2608L19.3331 22.0636C19.5113 22.1714 19.74 22.1437 19.8875 21.9959L21.9079 19.9677C22.0554 19.8197 22.0831 19.5897 21.9749 19.4106L21.1763 18.0881C21.288 17.8581 21.3881 17.618 21.4757 17.3694L22.9752 16.9983C23.1775 16.9484 23.3197 16.7661 23.3197 16.5571L23.3197 13.6855ZM5.69715 2.10973C5.61954 1.93794 5.68875 1.79856 5.72214 1.74662C5.75928 1.68892 5.84463 1.5917 5.99874 1.5917H12.4151C12.5692 1.5917 12.6545 1.68892 12.6917 1.74662C12.7251 1.79856 12.7943 1.93794 12.7315 2.07999L10.9545 5.35414H7.37426L5.69715 2.10973ZM3.37639 20.7889C2.18838 19.9238 1.58608 18.8447 1.58608 17.5814C1.58608 14.151 3.69242 10.6661 5.44163 8.4217C5.28738 9.40739 5.4646 10.43 6.33837 11.2408C6.5233 11.4123 6.80955 11.3987 6.97826 11.2155C7.14807 11.0313 7.13679 10.7436 6.95305 10.5732C6.22008 9.89315 6.19398 8.9976 6.41133 8.18617C6.58579 8.79785 6.98378 9.38778 7.73954 9.83278C7.95556 9.95996 8.23261 9.88694 8.3593 9.67054C8.48578 9.45393 8.41347 9.1756 8.19767 9.04843C6.83429 8.24584 7.20697 6.82939 7.42667 6.26368H11.0478C11.3797 6.57401 12.097 7.29375 12.923 8.28239L12.8239 8.68555C12.5734 8.77455 12.3355 8.87354 12.1128 8.98185L10.7849 8.17885C10.6058 8.07054 10.3774 8.09917 10.2305 8.24721L8.21027 10.28C8.06323 10.4278 8.0356 10.6571 8.14327 10.836L8.94236 12.1637C8.83336 12.3883 8.73585 12.6231 8.64784 12.873L7.15227 13.2443C6.95017 13.2945 6.80822 13.4765 6.80822 13.6855V16.5571C6.80822 16.7662 6.95018 16.9482 7.15249 16.9983L8.64828 17.3696C8.73584 17.6162 8.83578 17.8548 8.947 18.0832L8.14393 19.4104C8.03559 19.5893 8.06301 19.8197 8.21071 19.9677L10.231 21.9959C10.3782 22.1435 10.6066 22.1716 10.7849 22.0638L12.1128 21.2608C12.3362 21.3693 12.5721 21.4672 12.8188 21.5535L12.9399 22.0533C9.70245 22.9716 5.66412 22.4547 3.37639 20.7889ZM22.4141 16.2011L21.0169 16.5469C20.8632 16.5848 20.7405 16.7005 20.6932 16.852C20.578 17.2203 20.432 17.5696 20.2594 17.8903C20.1831 18.0324 20.1873 18.2041 20.2706 18.3422L21.0164 19.5771L19.4979 21.1012L18.2625 20.3519C18.1259 20.2691 17.9558 20.2645 17.8152 20.3399C17.4794 20.5199 17.1333 20.6646 16.7873 20.7705C16.6341 20.8171 16.5171 20.9416 16.4791 21.0977L16.1386 22.4992H13.9801L13.6394 21.0932C13.6018 20.9376 13.4853 20.8136 13.3329 20.7663C12.9626 20.6515 12.6185 20.5084 12.3101 20.341C12.1697 20.2651 11.9987 20.2687 11.861 20.3517L10.6208 21.1017L9.10244 19.5773L9.85244 18.3378C9.93602 18.1999 9.94044 18.0277 9.86394 17.8857C9.69169 17.5658 9.54554 17.2178 9.42968 16.8507C9.38215 16.7 9.25987 16.5848 9.10664 16.5469L7.71388 16.2013V14.0413L9.10686 13.6955C9.25987 13.6576 9.38215 13.5426 9.42968 13.3917C9.54952 13.0124 9.68993 12.6755 9.85885 12.3619C9.93536 12.2203 9.93116 12.0485 9.84824 11.9106L9.10155 10.6702L10.6212 9.1412L11.861 9.89093C11.9983 9.97416 12.1692 9.97749 12.3101 9.90159C12.6147 9.73624 12.9614 9.59108 13.3409 9.47034C13.4912 9.42263 13.606 9.29967 13.6436 9.14586L13.9883 7.74316H16.1386L16.4791 9.14475C16.5171 9.30078 16.6341 9.42507 16.7871 9.4719C17.1335 9.57799 17.4796 9.72292 17.8152 9.90269C17.9561 9.97838 18.1259 9.97349 18.2625 9.89071L19.4976 9.14164L21.0162 10.6695L20.2709 11.9C20.1877 12.0371 20.1829 12.2083 20.2583 12.3501C20.4316 12.6761 20.578 13.0268 20.6936 13.3919C20.7414 13.5426 20.8636 13.6578 21.0169 13.6955L22.4141 14.0415L22.4141 16.2011Z" fill="black"/>
<path d="M15.0637 10.8816C12.7348 10.8816 10.8401 12.7837 10.8401 15.1214C10.8401 17.4592 12.7348 19.361 15.0637 19.361C17.3926 19.361 19.2875 17.4592 19.2875 15.1214C19.2875 12.7837 17.3926 10.8816 15.0637 10.8816ZM15.0637 18.4519C13.2343 18.4519 11.7457 16.9578 11.7457 15.1214C11.7457 13.2848 13.2343 11.7907 15.0637 11.7907C16.8934 11.7907 18.3819 13.2848 18.3819 15.1214C18.3819 16.9578 16.8934 18.4519 15.0637 18.4519Z" fill="black"/>
<path d="M15.2001 14.9264V13.7626C15.4501 13.7659 15.6938 13.8098 15.9308 13.8946C15.9633 13.9077 15.9894 13.9142 16.0089 13.9142C16.0673 13.9142 16.1144 13.8937 16.1502 13.8529C16.1858 13.8123 16.2037 13.7659 16.2037 13.7135C16.2037 13.6159 16.1581 13.5506 16.0673 13.518C15.801 13.4201 15.5121 13.3664 15.2001 13.3566V12.98C15.2001 12.9476 15.1895 12.9205 15.1685 12.8994C15.1472 12.8781 15.1205 12.8677 15.0882 12.8677C15.0557 12.8677 15.0296 12.8781 15.0101 12.8994C14.9907 12.9205 14.981 12.9476 14.981 12.98V13.3615C14.2169 13.4026 13.8361 13.8484 13.8361 14.3592C13.8361 14.9836 14.3764 15.1746 14.981 15.3324V16.4521C14.6528 16.4423 14.3572 16.3789 14.0943 16.2615C14.0649 16.2486 14.0342 16.2419 14.0017 16.2419C13.9433 16.2419 13.8953 16.2615 13.8579 16.3005C13.8206 16.3398 13.802 16.3871 13.802 16.4423C13.802 16.4847 13.8148 16.5231 13.8409 16.5573C13.8668 16.5915 13.8993 16.6168 13.9384 16.6332C14.2599 16.7733 14.6073 16.8516 14.981 16.8678V17.2493C14.981 17.282 14.9907 17.3079 15.0101 17.3277C15.0296 17.3472 15.0557 17.357 15.0882 17.357C15.1205 17.357 15.1472 17.3472 15.1685 17.3277C15.1895 17.3079 15.2001 17.282 15.2001 17.2493V16.8678C16.3014 16.8053 16.5851 15.8804 16.1842 15.3983C15.942 15.1075 15.5716 15.0134 15.2001 14.9264ZM14.981 14.8725C13.9289 14.6052 14.1471 13.8495 14.981 13.7723V14.8725ZM15.2001 16.4472V15.3861C15.434 15.448 15.6102 15.515 15.7287 15.5865C16.0436 15.7776 16.0066 16.3917 15.2001 16.4472Z" fill="black"/>
</svg>
