<svg width="36" height="36" viewBox="0 0 36 36" fill="none" xmlns="http://www.w3.org/2000/svg">
<g clip-path="url(#clip0_2003_538659)">
<path d="M34.3174 20.2485L28.6354 14.5665M17.4694 19.686C17.4694 20.9098 17.1065 22.1061 16.4266 23.1236C15.7467 24.1411 14.7803 24.9342 13.6497 25.4025C12.5191 25.8708 11.275 25.9934 10.0748 25.7546C8.8745 25.5159 7.77199 24.9266 6.90665 24.0612C6.04131 23.1959 5.45201 22.0934 5.21327 20.8931C4.97452 19.6929 5.09705 18.4488 5.56537 17.3181C6.03369 16.1875 6.82675 15.2212 7.84428 14.5413C8.86181 13.8614 10.0581 13.4985 11.2819 13.4985M20.8309 34.8735C20.1325 32.8992 18.8394 31.19 17.1294 29.981C15.4194 28.7721 13.3768 28.123 11.2826 28.123C9.18848 28.123 7.14582 28.7721 5.43586 29.981C3.7259 31.19 2.43273 32.8992 1.73438 34.8735M29.6989 22.083C29.6991 23.1106 29.3956 24.1153 28.8265 24.9709C28.2574 25.8265 27.4481 26.4948 26.5004 26.8918C25.5526 27.2889 24.5086 27.3969 23.4996 27.2024C22.4906 27.0079 21.5616 26.5194 20.8294 25.7985M15.1924 8.9985C15.1924 11.0867 16.0219 13.0893 17.4985 14.5659C18.975 16.0425 20.9777 16.872 23.0659 16.872C25.1541 16.872 27.1567 16.0425 28.6333 14.5659C30.1098 13.0893 30.9394 11.0867 30.9394 8.9985C30.9394 6.91032 30.1098 4.90766 28.6333 3.4311C27.1567 1.95453 25.1541 1.125 23.0659 1.125C20.9777 1.125 18.975 1.95453 17.4985 3.4311C16.0219 4.90766 15.1924 6.91032 15.1924 8.9985Z" stroke="black" stroke-width="1.5" stroke-linecap="round" stroke-linejoin="round"/>
<path d="M32.5311 34.8724C32.0619 33.5458 31.2717 32.3559 30.2311 31.4088C29.1905 30.4617 27.9317 29.7868 26.5669 29.4442C25.2021 29.1016 23.7738 29.1019 22.4092 29.4453C21.0447 29.7886 19.7862 30.4642 18.7461 31.4119" stroke="black" stroke-width="1.5" stroke-linecap="round" stroke-linejoin="round"/>
</g>
<defs>
<clipPath id="clip0_2003_538659">
<rect width="36" height="36" fill="white"/>
</clipPath>
</defs>
</svg>
