<svg width="36" height="36" viewBox="0 0 36 36" fill="none" xmlns="http://www.w3.org/2000/svg">
<path d="M10.089 17.9336H25.9165C26.4181 17.9336 26.8248 17.527 26.8248 17.0254C26.8248 13.0713 24.2093 9.7153 20.6175 8.59815C21.8723 7.75324 22.6998 6.32127 22.6998 4.69788C22.6998 2.10773 20.5922 0 18.0019 0C15.4115 0 13.3039 2.10756 13.3039 4.69788C13.3039 6.32127 14.1314 7.75324 15.3862 8.59815C11.7944 9.71522 9.17894 13.0696 9.17894 17.0254C9.17894 17.527 9.58558 17.9336 10.0872 17.9336H10.089ZM18.0019 1.81835C19.589 1.81835 20.8817 3.10948 20.8817 4.69808C20.8817 6.2851 19.5906 7.57781 18.0019 7.57781C16.4149 7.57781 15.1222 6.28668 15.1222 4.69808C15.1222 3.11106 16.4133 1.81835 18.0019 1.81835ZM18.0019 10.0192C21.5558 10.0192 24.5004 12.6805 24.948 16.1141H11.0555C11.5033 12.6806 14.4467 10.0192 18.0019 10.0192ZM2.63451 27.1013V22.1661C2.63451 21.6645 3.04116 21.2579 3.54276 21.2579H17.0918V19.5269C17.0918 19.0253 17.4985 18.6187 18.0001 18.6187C18.5017 18.6187 18.9083 19.0253 18.9083 19.5269V21.2579H32.4574C32.959 21.2579 33.3657 21.6645 33.3657 22.1661V27.1013C33.3657 27.6029 32.959 28.0096 32.4574 28.0096C31.9558 28.0096 31.5492 27.6029 31.5492 27.1013V23.0761H18.9099V27.1013C18.9099 27.6029 18.5032 28.0096 18.0016 28.0096C17.5 28.0096 17.0934 27.6029 17.0934 27.1013V23.0761H4.45408V27.1013C4.45408 27.6029 4.04743 28.0096 3.54583 28.0096C3.04424 28.0096 2.63759 27.6029 2.63759 27.1013H2.63451ZM3.54276 28.9146C1.58863 28.9146 0 30.5032 0 32.4573C0 34.4114 1.58863 36 3.54276 36C5.49688 36 7.08551 34.4114 7.08551 32.4573C7.08551 30.5032 5.49688 28.9146 3.54276 28.9146ZM3.54276 34.182C2.59178 34.182 1.81806 33.4083 1.81806 32.4574C1.81806 31.5064 2.59182 30.7327 3.54276 30.7327C4.49373 30.7327 5.26745 31.5064 5.26745 32.4574C5.26745 33.4083 4.49369 34.182 3.54276 34.182ZM18 28.9146C16.0459 28.9146 14.4572 30.5032 14.4572 32.4573C14.4572 34.4114 16.0459 36 18 36C19.9541 36 21.5428 34.4114 21.5428 32.4573C21.5428 30.5032 19.9541 28.9146 18 28.9146ZM18 34.182C17.049 34.182 16.2753 33.4083 16.2753 32.4574C16.2753 31.5064 17.0491 30.7327 18 30.7327C18.9509 30.7327 19.7247 31.5064 19.7247 32.4574C19.7247 33.4083 18.9509 34.182 18 34.182ZM32.4572 28.9146C30.5031 28.9146 28.9145 30.5032 28.9145 32.4573C28.9145 34.4114 30.5031 36 32.4572 36C34.4114 36 36 34.4114 36 32.4573C36 30.5032 34.4114 28.9146 32.4572 28.9146ZM32.4572 34.182C31.5063 34.182 30.7325 33.4083 30.7325 32.4574C30.7325 31.5064 31.5063 30.7327 32.4572 30.7327C33.4082 30.7327 34.1819 31.5064 34.1819 32.4574C34.1819 33.4083 33.4082 34.182 32.4572 34.182Z" fill="black"/>
</svg>
