<svg width="60" height="60" viewBox="0 0 60 60" fill="none" xmlns="http://www.w3.org/2000/svg">
<path d="M49.1317 6.77578C55.0081 11.8374 59.2405 18.8353 59.9351 26.6984C60.0025 27.8291 60.006 28.9584 59.9956 30.0907C59.9948 30.2613 59.994 30.432 59.9931 30.6078C59.9746 33.3565 59.7756 35.9511 58.9439 38.5831C58.8855 38.7711 58.827 38.9591 58.7668 39.1528C56.335 46.7571 51.0338 53.1713 44.0137 56.9529C40.891 58.5527 37.5331 59.5641 34.0602 60C34.0602 55.6809 34.0602 51.3619 34.0602 46.9119C35.3115 46.4407 36.5628 45.9696 37.852 45.4841C42.4093 42.904 45.2388 39.1941 46.7205 34.177C47.7969 29.5324 46.866 24.8647 44.4284 20.8249C41.8354 16.9361 38.1959 14.2922 33.6242 13.2556C29.1493 12.4502 24.7204 13.1515 20.9268 15.7561C16.6909 18.9284 13.8644 23.5775 12.9683 28.8265C12.5787 32.6467 13.4951 36.6708 15.8121 39.7729C15.4978 40.5048 15.2062 40.8935 14.5522 41.342C14.3925 41.4532 14.2329 41.5644 14.0684 41.679C13.896 41.796 13.7236 41.913 13.546 42.0336C13.1812 42.2864 12.8164 42.5392 12.4517 42.7921C12.2636 42.9216 12.0755 43.051 11.8817 43.1844C10.9588 43.8229 10.046 44.4757 9.13205 45.1272C8.05093 45.8969 6.96511 46.6552 5.85866 47.3878C4.76816 47.0385 4.38578 46.1522 3.87389 45.2015C3.78096 45.0314 3.68803 44.8614 3.59229 44.6861C-0.20577 37.585 -0.98921 29.8263 1.22814 22.1086C2.51189 17.9485 4.67446 14.0259 7.51757 10.7411C7.6856 10.5436 7.85362 10.346 8.02673 10.1425C18.4578 -1.83842 36.8898 -3.51619 49.1317 6.77578Z" fill="#3880ED"/>
<path d="M23.3085 43C25.761 43 28.2135 43 30.7403 43C31.0195 46.5633 31.0072 50.1128 30.995 53.6857C30.9938 54.2998 30.9927 54.9139 30.9917 55.528C30.9891 57.0187 30.9851 58.5093 30.98 60C30.7427 60 30.5053 60 30.2608 60C30.2608 56.634 30.2608 53.268 30.2608 49.8C28.0457 49.8 25.8305 49.8 23.5483 49.8C23.5483 51.3227 23.5483 52.8454 23.5483 54.4143C21.7287 54.4143 19.9091 54.4143 18.0344 54.4143C18.0344 52.9717 18.0344 51.5291 18.0344 50.0429C16.373 50.0429 14.7117 50.0429 13 50.0429C13 48.44 13 46.8371 13 45.1857C14.7405 45.1857 16.4809 45.1857 18.2741 45.1857C18.2741 46.468 18.2741 47.7503 18.2741 49.0714C19.9355 49.0714 21.5968 49.0714 23.3085 49.0714C23.3085 47.0679 23.3085 45.0643 23.3085 43Z" fill="#EF5128"/>
<path d="M14 45C15.65 45 17.3 45 19 45C19 46.2505 19 47.5011 19 48.7895C20.65 48.7895 22.3 48.7895 24 48.7895C24 50.5089 24 52.2284 24 54C22.275 54 20.55 54 18.7727 54C18.7727 52.5932 18.7727 51.1863 18.7727 49.7368C17.1977 49.7368 15.6227 49.7368 14 49.7368C14 48.1737 14 46.6105 14 45Z" fill="#7EBB41"/>
<path d="M14 45C15.6432 45 17.2865 45 18.9795 45C18.9842 45.6394 18.9888 46.2788 18.9936 46.9375C18.9957 47.1372 18.9978 47.3369 18.9999 47.5427C19.003 48.4251 18.9483 49.1376 18.7531 50C17.1846 50 15.6161 50 14 50C14 48.35 14 46.7 14 45Z" fill="#FDB714"/>
<path d="M31 47C31.33 47 31.66 47 32 47C32 51.29 32 55.58 32 60C31.67 60 31.34 60 31 60C31 55.71 31 51.42 31 47Z" fill="#3880ED"/>
<path d="M33.183 47C33.4526 47 33.7222 47 34 47C34 51.29 34 55.58 34 60C33.6765 60 33.353 60 33.0196 60C33.0155 58.1873 33.0127 56.3746 33.0107 54.5619C33.0098 53.9447 33.0087 53.3275 33.0073 52.7102C33.0054 51.8253 33.0044 50.9403 33.0037 50.0553C33.0028 49.7775 33.002 49.4996 33.0011 49.2134C33.0011 48.9579 33.0011 48.7025 33.0011 48.4393C33.0007 48.2132 33.0004 47.9871 33 47.7541C33.0196 47.2407 33.0196 47.2407 33.183 47Z" fill="#3880ED"/>
</svg>
