<svg width="32" height="32" viewBox="0 0 32 32" fill="none" xmlns="http://www.w3.org/2000/svg">
<path d="M4.66624 10.6677C4.66651 9.40363 4.99354 8.16105 5.6156 7.06058C6.23766 5.96012 7.13363 5.03914 8.21656 4.38703C9.29949 3.73492 10.5326 3.37381 11.7962 3.33876C13.0599 3.3037 14.3111 3.59589 15.4285 4.18697C16.5459 4.77804 17.4916 5.64793 18.1737 6.71222C18.8558 7.77651 19.2512 8.99904 19.3215 10.2612C19.3919 11.5234 19.1348 12.7823 18.5751 13.9158C18.0155 15.0492 17.1724 16.0188 16.1276 16.7304C18.3776 17.5557 20.3291 19.0354 21.7311 20.9791C23.1331 22.9228 23.9212 25.2416 23.9942 27.6371C23.9911 27.8953 23.8884 28.1424 23.7074 28.3267C23.5264 28.511 23.2812 28.6182 23.023 28.6259C22.7648 28.6337 22.5137 28.5414 22.3219 28.3683C22.1302 28.1952 22.0128 27.9547 21.9942 27.6971C21.9148 25.099 20.827 22.634 18.9611 20.8243C17.0953 19.0146 14.5982 18.0025 11.9989 18.0025C9.39964 18.0025 6.9025 19.0146 5.03668 20.8243C3.17086 22.634 2.08298 25.099 2.00358 27.6971C1.99023 27.9582 1.87515 28.2037 1.68299 28.381C1.49083 28.5583 1.23688 28.6533 0.975543 28.6456C0.714203 28.6379 0.466261 28.5282 0.284833 28.3399C0.103406 28.1517 0.00292294 27.8999 0.00491178 27.6384C0.0776469 25.2427 0.865721 22.9236 2.26769 20.9796C3.66966 19.0356 5.62137 17.5557 7.87158 16.7304C6.88368 16.0576 6.07522 15.1535 5.51656 14.0968C4.9579 13.0402 4.666 11.863 4.66624 10.6677ZM11.9996 5.33441C10.5851 5.33441 9.22854 5.89631 8.22834 6.89651C7.22815 7.8967 6.66624 9.25325 6.66624 10.6677C6.66624 12.0822 7.22815 13.4388 8.22834 14.439C9.22854 15.4392 10.5851 16.0011 11.9996 16.0011C13.4141 16.0011 14.7706 15.4392 15.7708 14.439C16.771 13.4388 17.3329 12.0822 17.3329 10.6677C17.3329 9.25325 16.771 7.8967 15.7708 6.89651C14.7706 5.89631 13.4141 5.33441 11.9996 5.33441ZM23.0529 10.6677C22.8565 10.6677 22.6636 10.6811 22.4742 10.7077C22.3421 10.7314 22.2065 10.7282 22.0755 10.6983C21.9446 10.6685 21.821 10.6125 21.7122 10.5339C21.6034 10.4552 21.5115 10.3554 21.442 10.2405C21.3726 10.1255 21.327 9.99776 21.308 9.86482C21.289 9.73188 21.297 9.59647 21.3315 9.46668C21.366 9.33689 21.4262 9.21537 21.5087 9.10938C21.5912 9.00338 21.6941 8.91508 21.8114 8.84974C21.9288 8.7844 22.058 8.74337 22.1916 8.72908C23.5177 8.53735 24.8699 8.79201 26.0354 9.45297C27.2009 10.1139 28.1136 11.1437 28.6297 12.3802C29.1459 13.6167 29.2362 14.9897 28.8866 16.2831C28.5369 17.5766 27.7671 18.7171 26.6982 19.5251C28.2694 20.2286 29.6035 21.3717 30.5394 22.8166C31.4753 24.2614 31.9732 25.9462 31.9729 27.6677C31.9729 27.933 31.8676 28.1873 31.68 28.3748C31.4925 28.5624 31.2381 28.6677 30.9729 28.6677C30.7077 28.6677 30.4533 28.5624 30.2658 28.3748C30.0783 28.1873 29.9729 27.933 29.9729 27.6677C29.9734 26.1798 29.4942 24.7313 28.6066 23.5371C27.7189 22.343 26.4699 21.4667 25.0449 21.0384L24.3329 20.8251V18.5904L24.8796 18.3117C25.6899 17.9013 26.3383 17.2297 26.72 16.4054C27.1017 15.5811 27.1945 14.6522 26.9833 13.7688C26.7722 12.8853 26.2695 12.0987 25.5564 11.536C24.8432 10.9734 23.9613 10.6675 23.0529 10.6677Z" fill="black"/>
</svg>
